<svg xmlns="http://www.w3.org/2000/svg" height="40" viewBox="0 -960 960 960" width="40"><path d="M480.465-119.667q-30.465 0-51.131-21.013t-20.666-50.52q0-29.433 20.608-51.283 20.608-21.849 50.259-21.849 30.465 0 51.131 21.78t20.666 51.166q0 29.386-20.558 50.552-20.558 21.167-50.309 21.167Zm0-289.001q-30.465 0-51.131-20.608t-20.666-50.259q0-30.465 20.608-51.131t50.259-20.666q30.465 0 51.131 20.558t20.666 50.309q0 30.465-20.558 51.131t-50.309 20.666Zm0-287q-30.465 0-51.131-21.489t-20.666-51.666q0-30.177 20.608-51.177 20.608-20.999 50.259-20.999 30.465 0 51.131 21.056 20.666 21.057 20.666 51.026 0 30.381-20.558 51.815-20.558 21.434-50.309 21.434Z"/></svg>